<svg width="60" height="60" viewBox="0 0 60 60" fill="none" xmlns="http://www.w3.org/2000/svg">
<path fill-rule="evenodd" clip-rule="evenodd" d="M28.75 2.5C27.3692 2.5 26.25 3.6193 26.25 5V7.5H24.9999C18.0966 7.5 12.5 13.0956 12.5 19.9994V27.5C12.5 29.3442 11.9179 31.4305 10.9935 33.537C10.0791 35.6205 8.89689 37.5735 7.85354 39.1097C5.95469 41.906 7.1304 46.3253 11.0141 47.0258C13.5536 47.4838 17.1425 48.0287 21.3664 48.3817C21.3613 48.5037 21.3588 48.6265 21.3588 48.75C21.3588 53.5825 25.2762 57.5 30.1087 57.5C34.9412 57.5 38.8587 53.5825 38.8587 48.75C38.8587 48.6205 38.856 48.4915 38.8505 48.3633C42.9802 48.01 46.49 47.4758 48.9857 47.0258C52.8695 46.3253 54.0452 41.906 52.1465 39.1097C51.103 37.5735 49.9207 35.6205 49.0065 33.537C48.082 31.4305 47.5 29.3442 47.5 27.5V19.9994C47.5 13.0956 41.9032 7.5 35 7.5H33.75V5C33.75 3.6193 32.6307 2.5 31.25 2.5H28.75ZM30 48.75C31.2782 48.75 32.5305 48.7245 33.7492 48.6788C33.769 50.6895 32.1352 52.3912 30.1087 52.3912C28.0867 52.3912 26.4507 50.6945 26.468 48.6868C27.6182 48.7275 28.7977 48.75 30 48.75ZM24.9999 12.5C20.8576 12.5 17.5 15.8575 17.5 19.9994V27.5C17.5 30.3085 16.6387 33.1158 15.5719 35.5465C14.4951 38 13.1382 40.2277 11.99 41.9187C11.9644 41.9562 11.9525 41.9923 11.9485 42.0283C11.9449 42.0605 11.948 42.0905 11.9542 42.1145C15.911 42.8258 22.5011 43.75 30 43.75C37.4987 43.75 44.089 42.8258 48.0457 42.1145C48.052 42.0905 48.055 42.0605 48.0515 42.0283C48.0472 41.9923 48.0355 41.9562 48.01 41.9187C46.8617 40.2277 45.5047 38 44.428 35.5465C43.3612 33.1158 42.5 30.3085 42.5 27.5V19.9994C42.5 15.8575 39.1422 12.5 35 12.5H24.9999Z" fill="#0F0F0F"/>
</svg>
