<svg width="60" height="60" viewBox="0 0 60 60" fill="none" xmlns="http://www.w3.org/2000/svg">
<g clip-path="url(#clip0_53_46)">
<path fill-rule="evenodd" clip-rule="evenodd" d="M28.75 2.5C27.3693 2.5 26.25 3.61929 26.25 4.99999V7.49999H24.9999C18.0966 7.49999 12.4999 13.0956 12.4999 19.9994V27.5C12.4999 29.3443 11.9179 31.4305 10.9935 33.537C10.0791 35.6205 8.89687 37.5735 7.85355 39.1098C5.9547 41.906 7.13038 46.3253 11.0141 47.0258C13.5536 47.4838 17.1425 48.0288 21.3664 48.3818C21.3614 48.5038 21.3588 48.6265 21.3588 48.75C21.3588 53.5825 25.2762 57.5 30.1087 57.5C34.9412 57.5 38.8587 53.5825 38.8587 48.75C38.8587 48.6205 38.856 48.4915 38.8505 48.3633C42.9803 48.01 46.49 47.4758 48.9857 47.0258C52.8695 46.3253 54.0453 41.906 52.1465 39.1098C51.103 37.5735 49.9208 35.6205 49.0065 33.537C48.082 31.4305 47.5 29.3443 47.5 27.5V19.9994C47.5 13.0956 41.9033 7.49999 35 7.49999H33.75V4.99999C33.75 3.61929 32.6307 2.5 31.25 2.5H28.75ZM30 48.75C31.2783 48.75 32.5305 48.7245 33.7492 48.6788C33.769 50.6895 32.1352 52.3913 30.1087 52.3913C28.0867 52.3913 26.4508 50.6945 26.468 48.6865C27.6183 48.7275 28.7978 48.75 30 48.75ZM24.9999 12.5C20.8576 12.5 17.4999 15.8574 17.4999 19.9994V27.5C17.4999 30.3085 16.6387 33.1158 15.5719 35.5465C14.4951 38 13.1382 40.2278 11.99 41.9188C11.9644 41.9563 11.9525 41.9923 11.9485 42.0283C11.9449 42.0605 11.948 42.0905 11.9542 42.1145C15.911 42.8258 22.5011 43.75 30 43.75C37.4988 43.75 44.089 42.8258 48.0457 42.1145C48.052 42.0905 48.055 42.0605 48.0515 42.0283C48.0473 41.9923 48.0355 41.9563 48.01 41.9188C46.8618 40.2278 45.5048 38 44.428 35.5465C43.3613 33.1158 42.5 30.3085 42.5 27.5V19.9994C42.5 15.8574 39.1423 12.5 35 12.5H24.9999Z" fill="#0F0F0F"/>
<path fill-rule="evenodd" clip-rule="evenodd" d="M40.0747 1.89364C40.4055 0.570164 41.7865 -0.256178 43.1092 0.0753294C43.2827 0.119016 43.4472 0.167427 43.729 0.262209C44.0737 0.378139 44.5457 0.553692 45.106 0.805239C46.2235 1.30698 47.7127 2.12031 49.2455 3.38264C52.3577 5.94577 55.5402 10.2782 56.2375 17.2512C56.375 18.6251 55.3725 19.8502 53.9987 19.9876C52.625 20.125 51.3997 19.1226 51.2625 17.7488C50.7097 12.2217 48.267 9.05419 46.067 7.24229C44.9435 6.31714 43.8545 5.72422 43.058 5.36659C42.6612 5.18844 42.3422 5.07102 42.1352 5.00142C42.0502 4.97282 41.9647 4.94582 41.8782 4.92144C40.548 4.58007 39.741 3.22799 40.0747 1.89364Z" fill="#0F0F0F"/>
<path fill-rule="evenodd" clip-rule="evenodd" d="M19.9254 1.89364C19.5905 0.554155 18.2332 -0.260247 16.8937 0.0746248C16.7191 0.118367 16.5544 0.166915 16.271 0.262213C15.9263 0.378143 15.4543 0.553695 14.894 0.805243C13.7765 1.30698 12.2873 2.12031 10.7545 3.38265C7.64213 5.94578 4.45971 10.2782 3.76241 17.2512C3.62503 18.6251 4.62738 19.8502 6.00123 19.9876C7.37511 20.1249 8.60021 19.1226 8.73761 17.7488C9.29031 12.2217 11.7329 9.0542 13.933 7.2423C15.0564 6.31715 16.1454 5.72423 16.942 5.3666C17.3387 5.18845 17.6577 5.07103 17.8647 5.00143C17.9498 4.97283 18.0353 4.94583 18.1217 4.92145C19.452 4.58008 20.259 3.228 19.9254 1.89364Z" fill="#0F0F0F"/>
</g>
<defs>
<clipPath id="clip0_53_46">
<rect width="60" height="60" fill="white"/>
</clipPath>
</defs>
</svg>
